<svg width="32" height="32" viewBox="0 0 32 32" xmlns="http://www.w3.org/2000/svg">
    <g fill="none" fill-rule="evenodd">
        <circle fill="#E3991E" opacity=".2" cx="16" cy="16" r="16"/>
        <path d="M5.647 5h20.706v20.706H5.647z"/>
        <g fill="#E3991E" transform="translate(5 5)">
            <circle fill-opacity=".6" cx="15.555" cy="5.384" r="5.384"/>
            <g fill-rule="nonzero">
                <path d="M5.707 9.624a.414.414 0 0 1 .508-.024l.04.032 4.894 4.448h9.376c.212 0 .387.16.411.366l.003.048c0 .212-.16.388-.366.411l-.048.003h-9.536a.414.414 0 0 1-.239-.075l-.04-.032-4.742-4.31-4.907 4.194v5.5c0 .211-.16.387-.366.41l-.048.003a.414.414 0 0 1-.411-.366l-.003-.048v-5.69c0-.104.039-.203.108-.279l.037-.036 5.33-4.555z"/>
                <path d="M11.076 14.282c.255-.004.467.152.498.358l.005.048.09 5.639c.003.228-.216.417-.49.422-.254.004-.466-.152-.498-.358l-.004-.048-.09-5.639c-.003-.228.216-.417.49-.422zM7.443 17.103a.414.414 0 0 1 .417.358l.004.049.046 2.666a.414.414 0 0 1-.824.063l-.004-.048-.04-2.253-2.413.042.04 2.253a.414.414 0 0 1-.359.418l-.048.003a.414.414 0 0 1-.418-.358l-.003-.048-.047-2.667a.414.414 0 0 1 .359-.418l.048-.004 3.242-.056zM20.601 14.282c.254-.004.466.152.498.358l.004.048.09 5.639c.004.228-.215.417-.489.422-.254.004-.466-.152-.498-.358l-.004-.048-.09-5.639c-.004-.228.215-.417.49-.422z"/>
            </g>
            <g fill-rule="nonzero">
                <path d="M20.056 12.558c.23 0 .415.224.415.5 0 .257-.16.468-.366.497l-.049.003H12.13c-.228 0-.414-.224-.414-.5 0-.256.16-.467.366-.496l.048-.004h7.926zM5.563 6.652l8.326.01c.23.001.414.223.414.496 0 .254-.16.463-.366.491l-.048.003-8.327-.01c-.229 0-.414-.222-.414-.495 0-.254.16-.463.366-.491l.049-.004zM16.997 9.525c.229 0 .414.224.414.5 0 .256-.16.467-.366.496l-.048.004H8.93c-.228 0-.414-.224-.414-.5 0-.257.16-.468.366-.497l.048-.003h8.068z"/>
                <path d="M5.254 6.799a.414.414 0 0 1 .544-.064l.041.032 6.568 5.897a.414.414 0 0 1-.512.649l-.041-.032-6.568-5.898a.414.414 0 0 1-.032-.584zM9.807 7.05a.414.414 0 0 1 .545-.055l.04.033 5.798 5.384a.414.414 0 0 1-.523.64l-.04-.033-5.798-5.384a.414.414 0 0 1-.022-.585zM13.948 7.122a.414.414 0 0 1 .545-.054l.04.032 5.798 5.384a.414.414 0 0 1-.524.64l-.04-.033-5.797-5.384a.414.414 0 0 1-.022-.585z"/>
            </g>
        </g>
    </g>
</svg>
